<?xml version="1.0" encoding="UTF-8"?>
<svg version="1.1" xmlns="http://www.w3.org/2000/svg" width="720" height="184">
<path d="M0 0 C237.6 0 475.2 0 720 0 C720 60.72 720 121.44 720 184 C482.4 184 244.8 184 0 184 C0 123.28 0 62.56 0 0 Z " fill="#BB71EF" transform="translate(0,0)"/>
<path d="M0 0 C237.6 0 475.2 0 720 0 C720 60.72 720 121.44 720 184 C482.4 184 244.8 184 0 184 C0 123.28 0 62.56 0 0 Z M13 14 C13 65.81 13 117.62 13 171 C242.35 171 471.7 171 708 171 C708 119.19 708 67.38 708 14 C478.65 14 249.3 14 13 14 Z " fill="#BB70EF" transform="translate(0,0)"/>
<path d="M0 0 C229.35 0 458.7 0 695 0 C695 51.81 695 103.62 695 157 C465.65 157 236.3 157 0 157 C0 105.19 0 53.38 0 0 Z M5 5 C5 53.51 5 102.02 5 152 C231.05 152 457.1 152 690 152 C690 103.49 690 54.98 690 5 C463.95 5 237.9 5 5 5 Z " fill="#FEFEFE" transform="translate(13,14)"/>
<path d="M0 0 C-3.8484252 26.8484252 -3.8484252 26.8484252 -6 29 C-7.85369611 29.08737645 -9.71067541 29.10698153 -11.56640625 29.09765625 C-12.69111328 29.09443359 -13.81582031 29.09121094 -14.97460938 29.08789062 C-16.15861328 29.07951172 -17.34261719 29.07113281 -18.5625 29.0625 C-19.75037109 29.05798828 -20.93824219 29.05347656 -22.16210938 29.04882812 C-25.10812226 29.03699675 -28.05403681 29.02051287 -31 29 C-30.98952637 28.31373535 -30.97905273 27.6274707 -30.96826172 26.92041016 C-30.92678126 23.82197711 -30.90069931 20.72360239 -30.875 17.625 C-30.85824219 16.54476562 -30.84148437 15.46453125 -30.82421875 14.3515625 C-30.81777344 13.3203125 -30.81132813 12.2890625 -30.8046875 11.2265625 C-30.79421387 10.27346191 -30.78374023 9.32036133 -30.77294922 8.33837891 C-30.76868133 5.8076787 -30.76868133 5.8076787 -33 4 C-37.03352616 4.07610427 -39.35756173 4.52581937 -42.625 6.9375 C-53.96934699 21.56573691 -59.23594896 49.67683381 -57 68 C-56.15823298 70.93343053 -55.20897906 73.79102094 -53 76 C-49.30165223 76.43004044 -47.25445559 76.12213868 -43.875 74.5 C-38.19856104 69.56396612 -36.53493952 63.16305107 -35 56 C-38.63 55.67 -42.26 55.34 -46 55 C-45.125 46.25 -45.125 46.25 -44 44 C-31.46 44 -18.92 44 -6 44 C-6.60502366 50.05023662 -7.186441 55.55749543 -8.375 61.43359375 C-8.50438965 62.0782106 -8.6337793 62.72282745 -8.76708984 63.38697815 C-9.0371062 64.72744123 -9.30940787 66.06744599 -9.58398438 67.40698242 C-10.00402168 69.45712929 -10.41662832 71.50867036 -10.828125 73.56054688 C-12.84348469 83.53045406 -12.84348469 83.53045406 -14 87 C-19.94 87 -25.88 87 -32 87 C-32.66 84.03 -33.32 81.06 -34 78 C-34.66386719 78.55429688 -35.32773438 79.10859375 -36.01171875 79.6796875 C-37.33623047 80.76636719 -37.33623047 80.76636719 -38.6875 81.875 C-39.99267578 82.95394531 -39.99267578 82.95394531 -41.32421875 84.0546875 C-46.46904527 87.79501393 -50.91863081 88.38885079 -57.1875 88.375 C-57.9412793 88.37338867 -58.69505859 88.37177734 -59.47167969 88.37011719 C-67.82804815 88.18713102 -74.8909474 85.92937458 -81 80 C-84.17990453 76.39652966 -86.00881657 73.0584061 -87.6875 68.5625 C-88.10386719 67.47066406 -88.52023438 66.37882812 -88.94921875 65.25390625 C-93.48941188 51.19449779 -91.21389841 34.20453412 -85 21 C-77.5697976 6.91357462 -66.43425922 -1.38726065 -51.328125 -6.16015625 C-33.70005595 -10.18604607 -16.34871301 -6.80328609 0 0 Z " fill="#FEFDFE" transform="translate(134,52)"/>
<path d="M0 0 C10.56 0 21.12 0 32 0 C32.27714844 2.56394531 32.55429687 5.12789063 32.83984375 7.76953125 C33.11045224 10.25179671 33.38219712 12.73393531 33.65405273 15.21606445 C33.84241709 16.94152091 34.02959927 18.66710685 34.21557617 20.39282227 C34.48305744 22.87290862 34.75478288 25.35249866 35.02734375 27.83203125 C35.10967758 28.60400345 35.19201141 29.37597565 35.27684021 30.17134094 C35.62015548 33.26312305 36.01295935 36.03887805 37 39 C39.11928286 33.9285466 41.23716898 28.85651309 43.35375977 23.78393555 C44.07407839 22.05818907 44.79477923 20.33260208 45.51586914 18.60717773 C46.5519489 16.12785954 47.58665528 13.6479721 48.62109375 11.16796875 C48.94403915 10.39599655 49.26698456 9.62402435 49.59971619 8.82865906 C50.81782212 5.90538867 51.99814546 3.00556362 53 0 C62.57 0 72.14 0 82 0 C84.09270363 12.65134466 85.7850829 25.23622392 87 38 C90.02729814 34.45545489 91.63628161 30.44731874 93.35546875 26.171875 C93.66196854 25.42286926 93.96846832 24.67386353 94.28425598 23.90216064 C95.25747861 21.52029647 96.22258399 19.13523969 97.1875 16.75 C97.84777357 15.1299907 98.50857504 13.51019645 99.16992188 11.890625 C100.78707647 7.92991513 102.393204 3.96498671 104 0 C109.28 0 114.56 0 120 0 C118.79764978 3.60705067 117.72455035 6.80528197 116.15576172 10.19091797 C115.80134003 10.95967255 115.44691833 11.72842712 115.08175659 12.52047729 C114.51148239 13.74397385 114.51148239 13.74397385 113.9296875 14.9921875 C113.52976593 15.85578888 113.12984436 16.71939026 112.71780396 17.60916138 C111.87038679 19.43710101 111.02138327 21.26430595 110.17089844 23.09082031 C108.89619795 25.82945716 107.62738106 28.57075834 106.359375 31.3125 C101.4174066 41.97049749 96.30783095 52.51917907 91 63 C80.77 63 70.54 63 60 63 C58.35 53.76 56.7 44.52 55 35 C52.52122959 38.30502722 50.97473304 40.93823751 49.30078125 44.640625 C48.86161377 45.60516602 48.42244629 46.56970703 47.9699707 47.56347656 C47.42300537 48.7800293 46.87604004 49.99658203 46.3125 51.25 C44.559375 55.1275 42.80625 59.005 41 63 C30.44 63 19.88 63 9 63 C7.82539846 55.38373446 6.65136303 47.76742066 5.48286438 40.15022278 C4.93854162 36.60299836 4.39316208 33.05594385 3.84521484 29.50927734 C3.21641845 25.43898034 2.59245778 21.36795489 1.96875 17.296875 C1.77188599 16.02696716 1.57502197 14.75705933 1.37219238 13.44866943 C1.19200562 12.26774719 1.01181885 11.08682495 0.82617188 9.87011719 C0.66628784 8.83087097 0.50640381 7.79162476 0.3416748 6.72088623 C0 4 0 4 0 0 Z " fill="#FEFDFE" transform="translate(277,76)"/>
<path d="M0 0 C237.6 0 475.2 0 720 0 C720 60.72 720 121.44 720 184 C482.4 184 244.8 184 0 184 C0 123.28 0 62.56 0 0 Z M2 3 C2 62.07 2 121.14 2 182 C238.61 182 475.22 182 719 182 C719 122.93 719 63.86 719 3 C482.39 3 245.78 3 2 3 Z " fill="#FDFDFE" transform="translate(0,0)"/>
<path d="M0 0 C3.90728518 3.51655666 6.0951019 6.59337268 6.8828125 11.76171875 C7.21405214 19.50168495 5.32010749 23.49470439 2.5 31.25 C-11.36 31.25 -25.22 31.25 -39.5 31.25 C-40.36657824 43.98108186 -40.36657824 43.98108186 -37.5 50.25 C-34.37709365 49.76421457 -31.50419641 49.2513988 -28.5 48.25 C-27.77095914 46.60965807 -27.11344757 44.93698082 -26.5 43.25 C-25.28393555 40.60864258 -25.28393555 40.60864258 -23.5 38.25 C-20.95629883 37.68237305 -20.95629883 37.68237305 -17.95703125 37.76171875 C-16.88388672 37.77783203 -15.81074219 37.79394531 -14.70507812 37.81054688 C-13.02575195 37.87338867 -13.02575195 37.87338867 -11.3125 37.9375 C-10.18134766 37.96005859 -9.05019531 37.98261719 -7.88476562 38.00585938 C-5.08852024 38.06485189 -2.29491903 38.1471176 0.5 38.25 C0.18340402 40.84307181 -0.17597688 43.41722123 -0.5625 46 C-0.64693359 46.72960937 -0.73136719 47.45921875 -0.81835938 48.2109375 C-1.47808922 52.35781083 -2.00394207 53.84775439 -5.37109375 56.578125 C-14.56666233 60.8262521 -24.12472405 61.7358405 -34.125 61.625 C-35.17945313 61.63660156 -36.23390625 61.64820313 -37.3203125 61.66015625 C-46.64535014 61.62553359 -55.40112971 60.22075747 -62.73828125 54.07421875 C-69.30446343 47.27508997 -70.17706126 39.94737495 -70.02172852 30.86645508 C-69.54310632 20.50281943 -65.70861194 12.72559757 -58.5 5.25 C-43.89504915 -7.36044214 -16.77959344 -8.38979672 0 0 Z " fill="#FCFBFD" transform="translate(464.5,78.75)"/>
<path d="M0 0 C4.66068188 4.2640281 6.09138853 7.64441051 6.375 13.875 C5.9375 19.6875 5.9375 19.6875 1.9375 30.6875 C-11.9225 30.6875 -25.7825 30.6875 -40.0625 30.6875 C-41.18053399 44.19678802 -41.18053399 44.19678802 -38.0625 49.6875 C-34.93959365 49.20171457 -32.06669641 48.6888988 -29.0625 47.6875 C-27.97818906 45.93882517 -27.97818906 45.93882517 -27.0625 43.6875 C-26.0725 41.7075 -25.0825 39.7275 -24.0625 37.6875 C-16.1425 37.6875 -8.2225 37.6875 -0.0625 37.6875 C-2.72192029 52.31431159 -2.72192029 52.31431159 -5.0625 55.6875 C-14.50993395 60.17777747 -23.9750304 60.88957011 -34.25 60.9375 C-35.33603516 60.958125 -36.42207031 60.97875 -37.54101562 61 C-47.23348008 61.0465704 -55.67163415 59.65928553 -63.37109375 53.4375 C-69.59358318 46.99945089 -70.36315044 38.91115046 -70.37939453 30.37939453 C-70.22791494 21.53560449 -68.06166597 13.74819994 -61.8046875 7.2421875 C-46.82998234 -6.1208902 -17.68852005 -11.42383587 0 0 Z " fill="#FDFCFE" transform="translate(545.0625,79.3125)"/>
<path d="M0 0 C1.08864349 0.00539291 1.08864349 0.00539291 2.19927979 0.01089478 C2.96020432 0.01074875 3.72112885 0.01060272 4.50511169 0.01045227 C7.03202113 0.01115155 9.55885776 0.01894462 12.08575439 0.02676392 C13.83310404 0.02862804 15.58045421 0.03005197 17.32780457 0.03105164 C21.93591749 0.03487724 26.54399909 0.04470788 31.15209961 0.05575562 C35.85068335 0.06596883 40.54927214 0.07054906 45.24786377 0.07559204 C54.47378902 0.08633011 63.69969098 0.10340704 72.92559814 0.12442017 C72.78452067 1.58322126 72.637574 3.04145568 72.48809814 4.49942017 C72.36628174 5.71758423 72.36628174 5.71758423 72.24200439 6.96035767 C71.92559814 9.12442017 71.92559814 9.12442017 70.92559814 11.12442017 C63.33559814 11.45442017 55.74559814 11.78442017 47.92559814 12.12442017 C47.16376221 15.75184204 47.16376221 15.75184204 46.38653564 19.45254517 C42.49676091 37.96333565 38.60031045 56.47245356 34.60284424 74.96035767 C34.10267267 77.29713616 33.61227996 79.63601273 33.1272583 81.97598267 C32.86090576 83.25215454 32.59455322 84.52832642 32.32012939 85.84317017 C32.07754395 87.01815063 31.8349585 88.1931311 31.58502197 89.40371704 C30.92559814 92.12442017 30.92559814 92.12442017 29.92559814 93.12442017 C27.54991295 93.21281687 25.2035114 93.23972322 22.82794189 93.22207642 C21.76465416 93.21995399 21.76465416 93.21995399 20.67988586 93.2177887 C18.40758102 93.21217459 16.13537339 93.1996198 13.86309814 93.18692017 C12.32599019 93.18190698 10.78888069 93.17734376 9.25177002 93.17324829 C5.47634173 93.16220059 1.70098644 93.14492658 -2.07440186 93.12442017 C1.1519037 76.82800567 4.46439971 60.55146398 7.89263916 44.29629517 C8.38039237 41.97967402 8.86600738 39.66260183 9.34967041 37.34512329 C10.06198596 33.93207291 10.78018624 30.52030969 11.49981689 27.10879517 C11.82172249 25.55898956 11.82172249 25.55898956 12.15013123 23.97787476 C12.35406998 23.0178656 12.55800873 22.05785645 12.76812744 21.0687561 C12.94401901 20.23148987 13.11991058 19.39422363 13.3011322 18.53158569 C13.92559814 16.12442017 13.92559814 16.12442017 15.92559814 11.12442017 C8.33559814 11.12442017 0.74559814 11.12442017 -7.07440186 11.12442017 C-5.96320625 0.01246415 -5.96320625 0.01246415 0 0 Z " fill="#FEFDFE" transform="translate(149.07440185546875,45.875579833984375)"/>
<path d="M0 0 C-0.60376378 5.63512859 -1.59330266 10.37321063 -3 16 C-9.6 16 -16.2 16 -23 16 C-23 13.36 -23 10.72 -23 8 C-24.10649557 6.68465212 -24.10649557 6.68465212 -26.875 6.6875 C-30.01592648 6.6983368 -30.01592648 6.6983368 -31.875 8.625 C-33.26828383 11.56637697 -33.21931821 13.78333296 -33 17 C-32.41734375 17.17015625 -31.8346875 17.3403125 -31.234375 17.515625 C-29.48592587 18.03246216 -27.74003759 18.55800272 -25.99609375 19.08984375 C-23.97290304 19.70445058 -21.94396096 20.30039037 -19.91015625 20.87890625 C-12.8528393 23.0058908 -6.88414377 25.39702307 -2.83984375 31.8515625 C-0.81358795 37.03500757 -1.3949383 43.11363118 -3.0625 48.3125 C-8.51195608 55.87142295 -15.01028698 58.87000665 -24 61 C-28.99484038 61.5126759 -33.92068666 61.51632474 -38.9375 61.4375 C-40.20529297 61.44458984 -41.47308594 61.45167969 -42.77929688 61.45898438 C-51.87866486 61.39835301 -62.21056621 61.19295586 -70 56 C-69.01 51.05 -68.02 46.1 -67 41 C-60.4 41 -53.8 41 -47 41 C-46.34 43.64 -45.68 46.28 -45 49 C-43.10511048 50.89488952 -40.42860854 50.18019112 -37.91015625 50.23046875 C-35.7587364 50.1702792 -35.7587364 50.1702792 -34 48 C-33.49989476 45.04230823 -33.49989476 45.04230823 -34 42 C-37.86862934 38.09096722 -43.59751674 36.99771589 -48.71289062 35.42578125 C-54.39693314 33.5560962 -57.92231539 31.17353656 -61.28125 26.04296875 C-63.15237173 20.72450862 -63.02987601 14.61580674 -60.97265625 9.390625 C-56.20114331 1.51300253 -49.53059909 -1.50788037 -40.875 -3.8125 C-27.15110268 -6.60840458 -12.93129383 -5.52824829 0 0 Z " fill="#FDFCFE" transform="translate(677,79)"/>
<path d="M0 0 C-0.11674901 1.35490296 -0.24393423 2.70890696 -0.375 4.0625 C-0.44460938 4.81660156 -0.51421875 5.57070312 -0.5859375 6.34765625 C-1.09749423 9.62451493 -2.08887409 12.81105932 -3 16 C-9.27 16 -15.54 16 -22 16 C-22.495 12.04 -22.495 12.04 -23 8 C-24.11166864 6.66812207 -24.11166864 6.66812207 -26.9375 6.8125 C-30.10892859 6.66721267 -30.10892859 6.66721267 -32 9 C-32.45811675 10.97235333 -32.45811675 10.97235333 -32.625 13.125 C-32.810625 15.043125 -32.810625 15.043125 -33 17 C-31.783125 17.4125 -30.56625 17.825 -29.3125 18.25 C-28.49652344 18.52714844 -27.68054688 18.80429688 -26.83984375 19.08984375 C-24.82624785 19.73519154 -22.79490061 20.32629045 -20.75390625 20.87890625 C-12.39562307 23.18830472 -6.86609381 25.70085928 -2 33 C-1.34477364 38.70656448 -1.18539676 44.1332009 -3.5 49.4375 C-11.56011877 57.69912174 -19.42851594 61.01090026 -31.01171875 61.43359375 C-33.57021397 61.45608602 -36.12897815 61.45672496 -38.6875 61.4375 C-39.67922211 61.43592896 -39.67922211 61.43592896 -40.690979 61.43432617 C-50.67901723 61.40161326 -59.66357307 60.66905199 -69 57 C-69.25365867 51.03902122 -68.3696946 47.1636257 -67 41 C-60.07 41 -53.14 41 -46 41 C-45.67 43.64 -45.34 46.28 -45 49 C-43.96593327 50.25949049 -43.96593327 50.25949049 -41.71484375 50.09765625 C-40.79832031 50.08605469 -39.88179687 50.07445312 -38.9375 50.0625 C-38.01839844 50.05347656 -37.09929687 50.04445312 -36.15234375 50.03515625 C-35.44207031 50.02355469 -34.73179687 50.01195312 -34 50 C-33.67 47.03 -33.34 44.06 -33 41 C-36.41924259 39.5589399 -39.86751606 38.42003759 -43.41918945 37.3515625 C-55.94100264 33.50013974 -55.94100264 33.50013974 -60 28 C-62.56069376 22.74751894 -62.66867486 17.73875384 -62 12 C-59.05821876 5.76342376 -53.54706373 0.79579817 -47.125 -1.75 C-45.75736761 -2.19024738 -44.38195467 -2.60701477 -43 -3 C-42.01966797 -3.30744141 -42.01966797 -3.30744141 -41.01953125 -3.62109375 C-27.71185273 -7.24138153 -12.57073051 -5.37410412 0 0 Z " fill="#FEFCFE" transform="translate(270,79)"/>
<path d="M0 0 C-1.17855732 6.70774643 -2.47648314 13.36181939 -4 20 C-0.37 20 3.26 20 7 20 C6.125 28.875 6.125 28.875 5 30 C2.98035801 30.07244053 0.95832876 30.08377188 -1.0625 30.0625 C-2.71958984 30.04896484 -2.71958984 30.04896484 -4.41015625 30.03515625 C-5.26480469 30.02355469 -6.11945312 30.01195313 -7 30 C-7.11214844 31.21300781 -7.22429688 32.42601562 -7.33984375 33.67578125 C-8.16269528 41.09015244 -9.78452812 48.36622214 -11.27148438 55.66992188 C-11.49255859 56.78302734 -11.71363281 57.89613281 -11.94140625 59.04296875 C-12.24606812 60.54380005 -12.24606812 60.54380005 -12.55688477 62.07495117 C-13.01431203 65.0944752 -13.07677459 67.95083067 -13 71 C-10.03 71.66 -7.06 72.32 -4 73 C-4.30782496 74.64671412 -4.62139234 76.29235576 -4.9375 77.9375 C-5.11152344 78.85402344 -5.28554688 79.77054687 -5.46484375 80.71484375 C-6 83 -6 83 -7 84 C-11.17962514 84.31171981 -15.37269894 84.27862021 -19.5625 84.3125 C-20.73103516 84.34150391 -21.89957031 84.37050781 -23.10351562 84.40039062 C-30.21906786 84.45256331 -35.01232367 83.96567862 -41 80 C-47.21523021 70.2887028 -43.28413314 58.07890458 -41.0625 47.5625 C-40.78104654 46.18832578 -40.50044177 44.81397745 -40.22070312 43.43945312 C-38.19960601 33.59881803 -38.19960601 33.59881803 -37 30 C-40.63 30 -44.26 30 -48 30 C-48 23.52380952 -48 23.52380952 -46 20 C-42.09612321 17.95426136 -38.18512221 16.6842603 -34 15.3515625 C-27.16412073 13.16471409 -23.01133639 9.81891015 -19.5 3.625 C-15.34727147 -2.54543844 -6.55737313 -0.56072549 0 0 Z " fill="#FEFDFE" transform="translate(605,56)"/>
<path d="M0 0 C132.99 0 265.98 0 403 0 C403 0.66 403 1.32 403 2 C468.34 2 533.68 2 601 2 C601 2.33 601 2.66 601 3 C364.39 3 127.78 3 -116 3 C-116 62.07 -116 121.14 -116 182 C-116.33 182 -116.66 182 -117 182 C-117 122.6 -117 63.2 -117 2 C-78.39 2 -39.78 2 0 2 C0 1.34 0 0.68 0 0 Z " fill="#F9F3FD" transform="translate(118,0)"/>
<path d="M0 0 C2.9375 0.3125 2.9375 0.3125 4.9375 2.3125 C5.16796875 4.73828125 5.16796875 4.73828125 5.125 7.625 C5.11855469 8.56988281 5.11210937 9.51476562 5.10546875 10.48828125 C4.9375 13.3125 4.9375 13.3125 3.9375 18.3125 C-1.3425 18.3125 -6.6225 18.3125 -12.0625 18.3125 C-10.93378713 10.4115099 -10.93378713 10.4115099 -8.6875 7.0625 C-8.26726562 6.41796875 -7.84703125 5.7734375 -7.4140625 5.109375 C-3.86778592 0.39467203 -3.86778592 0.39467203 0 0 Z " fill="#BD74F1" transform="translate(439.0625,84.6875)"/>
<path d="M0 0 C2.9375 0.3125 2.9375 0.3125 4.9375 2.3125 C5.16796875 4.9921875 5.16796875 4.9921875 5.125 8.1875 C5.11855469 9.23679687 5.11210938 10.28609375 5.10546875 11.3671875 C4.9375 14.3125 4.9375 14.3125 3.9375 18.3125 C-1.3425 18.3125 -6.6225 18.3125 -12.0625 18.3125 C-11.27076962 13.5621177 -10.91690723 11.49606164 -8.6875 7.625 C-8.26726562 6.87863281 -7.84703125 6.13226563 -7.4140625 5.36328125 C-5.18041301 1.97407321 -4.14996483 0.4234658 0 0 Z " fill="#BD73F1" transform="translate(519.0625,84.6875)"/>
<path d="M0 0 C13.53 0 27.06 0 41 0 C36 5 36 5 32.12768555 5.56762695 C30.63046319 5.56684203 29.13308264 5.53898147 27.63671875 5.48828125 C26.84473587 5.48120651 26.05275299 5.47413177 25.23677063 5.46684265 C22.71936611 5.43896244 20.20422644 5.376242 17.6875 5.3125 C15.9759437 5.28740861 14.26435235 5.26459691 12.55273438 5.24414062 C8.36762346 5.18915747 4.18419504 5.10293418 0 5 C0 3.35 0 1.7 0 0 Z " fill="#F0F0F0" transform="translate(120,14)"/>
<path d="M0 0 C-0.125 1.75 -0.125 1.75 -1 4 C-4.19569095 6.74978058 -5.91610604 8.04250565 -10.1875 7.875 C-13 7 -13 7 -16 5 C-16 4.34 -16 3.68 -16 3 C-10.47239641 0.89424625 -5.93002267 -0.37851209 0 0 Z " fill="#FDFCFE" transform="translate(430,76)"/>
<path d="M0 0 C1.09828125 0.01933594 1.09828125 0.01933594 2.21875 0.0390625 C2.9509375 0.02617187 3.683125 0.01328125 4.4375 0 C6.71875 0.6640625 6.71875 0.6640625 11.71875 5.6640625 C5.44875 5.6640625 -0.82125 5.6640625 -7.28125 5.6640625 C-2.28125 0.6640625 -2.28125 0.6640625 0 0 Z " fill="#F1F1F1" transform="translate(510.28125,13.3359375)"/>
<path d="M0 0 C7.26 0 14.52 0 22 0 C22 0.99 22 1.98 22 3 C19.08277452 3.08103404 16.16780484 3.14051081 13.25 3.1875 C12.0125 3.22520508 12.0125 3.22520508 10.75 3.26367188 C9.55117187 3.27817383 9.55117187 3.27817383 8.328125 3.29296875 C7.5949707 3.3086792 6.86181641 3.32438965 6.10644531 3.34057617 C4 3 4 3 0 0 Z " fill="#EFEDF0" transform="translate(153,0)"/>
<path d="M0 0 C3.96 0 7.92 0 12 0 C12 0.99 12 1.98 12 3 C8.04 3 4.08 3 0 3 C0 2.01 0 1.02 0 0 Z " fill="#EFEDF0" transform="translate(118,0)"/>
<path d="M0 0 C2.64 0 5.28 0 8 0 C5.6875 2.5 5.6875 2.5 3 5 C2.01 5 1.02 5 0 5 C0 3.35 0 1.7 0 0 Z " fill="#FDFDFD" transform="translate(132,14)"/>
<path d="M0 0 C1.98 0 3.96 0 6 0 C6.33 0.99 6.66 1.98 7 3 C4.69 3 2.38 3 0 3 C0 2.01 0 1.02 0 0 Z " fill="#EFEDF1" transform="translate(515,0)"/>
</svg>
